<svg viewBox="0 0 24 24" fill="none"><path d="M3 4c-.53 0-1.04.21-1.41.59-.38.37-.59.88-.59 1.41v11h2c0 .8.32 1.56.88 2.12.56.56 1.32.88 2.12.88s1.56-.32 2.12-.88.88-1.32.88-2.12h6c0 .8.32 1.56.88 2.12.56.56 1.32.88 2.12.88s1.56-.32 2.12-.88.88-1.32.88-2.12h2v-5l-3-4h-3V4H3zm7 2l4 4-4 4V11H4V9h6V6zm7 3.5h2.5l1.97 2.5H17V9.5zM6 15.5c.4 0 .78.16 1.06.44.28.28.44.66.44 1.06s-.16.78-.44 1.06-.66.44-1.06.44-.78-.16-1.06-.44-.44-.66-.44-1.06.16-.78.44-1.06.66-.44 1.06-.44zm12 0c.4 0 .78.16 1.06.44.28.28.44.66.44 1.06s-.16.78-.44 1.06-.66.44-1.06.44-.78-.16-1.06-.44-.44-.66-.44-1.06.16-.78.44-1.06.66-.44 1.06-.44z" fill="currentColor"/></svg>