<svg viewBox="0 0 24 24" fill="none"><g clip-path="url(#c)"><path d="M23.8 5.12c-.1-.43-.63-.57-.94-.26l-3.49 3.48-3.18-.53-.53-3.18 3.49-3.49c.31-.31.16-.84-.27-.94-2.22-.55-4.67.04-6.4 1.78-1.86 1.86-2.37 4.55-1.6 6.9l-10 10c-1.17 1.17-1.17 3.07 0 4.24 1.17 1.17 3.07 1.17 4.24 0l10-10c2.35.78 5.04.27 6.91-1.6 1.74-1.74 2.33-4.19 1.78-6.41zM3 22.13c-.62 0-1.12-.5-1.12-1.12s.5-1.13 1.12-1.13 1.13.5 1.13 1.13-.5 1.12-1.13 1.12z" fill="currentColor"/></g><defs><clipPath id="c"><rect width="24" height="24" fill="#fff"/></clipPath></defs></svg>